<?xml version="1.0" encoding="UTF-8"?>
<svg id="Capa_2" data-name="Capa 2" xmlns="http://www.w3.org/2000/svg" viewBox="0 0 1600 600">
  <path d="M482.811,196.724c96.819-137.652,315.4-66.852,317.862,99.145l-.353,179.381-2.231.728c-58.841-1.116-118.287,1.366-176.857-.028-142.733-3.398-220.118-163.073-138.421-279.225ZM619.978,198.885c-77.229,4.017-120.357,89.129-81.353,154.813,35.368,59.56,121.866,64.858,165.087,10.948,54.745-68.283,3.535-170.3-83.734-165.761Z" fill="#3b9bd4"/>
  <path d="M1130.318,218.346c-12.1,10.424-24.444,20.833-37.026,30.586-8.342-11.711-17.789-23.446-29.788-31.638-77.52-52.917-177.381,15.265-156.866,106.5,14.956,66.513,90.681,98.417,149.736,64.286,15.603-9.018,26.841-21.564,37.706-35.563l1.001.27c5.285,6.756,54.461,43.8,54.792,47.406.133,1.451-5.364,8.58-6.72,10.291-95.469,120.477-294.193,66.298-312.914-87.232-19.605-160.786,166.716-262.176,290.751-156.019,10.98,9.398,21.739,21.109,29.466,33.176-6.601,6.069-13.353,12.091-20.138,17.937Z" fill="#3b9bd4"/>
</svg>