<?xml version="1.0" encoding="UTF-8"?>
<svg id="Capa_2" data-name="Capa 2" xmlns="http://www.w3.org/2000/svg" viewBox="0 0 256 256">
  <path d="M37.493,98.531c27.627-39.278,89.997-19.076,90.7,28.29l-.101,51.185-.636.208c-16.79-.318-33.752.39-50.465-.008-40.728-.969-62.809-46.532-39.497-79.675ZM76.632,99.148c-22.037,1.146-34.343,25.432-23.213,44.175,10.092,16.995,34.773,18.507,47.106,3.124,15.621-19.484,1.009-48.594-23.893-47.299Z" fill="#3b9bd4"/>
  <path d="M222.254,104.701c-3.453,2.974-6.975,5.945-10.565,8.727-2.38-3.342-5.076-6.69-8.5-9.028-22.12-15.1-50.614,4.356-44.761,30.389,4.267,18.979,25.875,28.083,42.726,18.343,4.452-2.573,7.659-6.153,10.759-10.148l.286.077c1.508,1.928,15.54,12.498,15.634,13.527.038.414-1.531,2.448-1.917,2.936-27.242,34.377-83.946,18.918-89.288-24.891-5.594-45.879,47.571-74.81,82.964-44.519,3.133,2.682,6.203,6.023,8.408,9.466-1.883,1.732-3.81,3.45-5.746,5.118Z" fill="#3b9bd4"/>
</svg>